<?xml version="1.0" encoding="UTF-8" standalone="no"?><!DOCTYPE svg PUBLIC "-//W3C//DTD SVG 1.1//EN" "http://www.w3.org/Graphics/SVG/1.1/DTD/svg11.dtd"><svg width="100%" height="100%" viewBox="0 0 834 250" version="1.1" xmlns="http://www.w3.org/2000/svg" xmlns:xlink="http://www.w3.org/1999/xlink" xml:space="preserve" xmlns:serif="http://www.serif.com/" style="fill-rule:evenodd;clip-rule:evenodd;stroke-linejoin:round;stroke-miterlimit:2;"><circle cx="195.833" cy="125" r="95.833" style="fill:#fff;"/><path d="M277.722,75.525c-29.808,31.112 -44.712,66.727 -44.712,106.847c0,4.622 0.178,9.481 0.533,14.578c-9.54,-0 -27.141,1.333 -52.801,4c-8.889,-8 -18.874,-23.052 -29.956,-45.157c-12.681,-25.363 -21.333,-50.104 -25.956,-74.223c-0.592,-3.259 -3.644,-6.163 -9.155,-8.711c-4.267,-1.6 -8.564,-3.2 -12.89,-4.801l10.223,-12.889c18.845,6.578 35.23,11.378 49.156,14.401c16.297,3.496 33.216,5.54 50.757,6.133c0.652,0 0.978,0.356 0.978,1.067c-0,0.948 -0.889,2.815 -2.667,5.6c-2.489,3.852 -3.971,6.311 -4.445,7.378c-1.481,-0.119 -5.422,-0.682 -11.822,-1.689c-5.393,-0.83 -9.156,-1.245 -11.289,-1.245c-2.311,0 -3.467,0.356 -3.467,1.067c-0.118,2.43 -0.178,5.304 -0.178,8.622c0,16.356 2.519,31.645 7.556,45.868c5.689,16.06 13.897,28.534 24.623,37.423c0.592,0.652 1.57,0.978 2.933,0.978c1.126,-0 1.541,-0.445 1.245,-1.334c-0.593,-3.792 -0.889,-9.185 -0.889,-16.178c-0,-36.208 9.896,-66.786 29.689,-91.735c-2.548,-1.778 -6.341,-3.763 -11.378,-5.955c-3.97,-1.66 -7.941,-3.319 -11.911,-4.978c1.778,-4.267 4.326,-10.638 7.644,-19.112c12.682,9.126 21.245,15.2 25.69,18.223c7.23,4.918 14.607,9.511 22.134,13.778c1.007,0.592 1.125,1.274 0.355,2.044Z" style="fill-rule:nonzero;stroke:#fff;stroke-width:2.02px;"/><path d="M412.325,149.806l25.145,-72.596l12.694,0l-32.641,88.01l-10.276,-0l-32.58,-88.01l12.633,0l25.025,72.596Z" style="fill:#fff;fill-rule:nonzero;"/><path d="M511.698,124.54l-38.141,-0l-0,31.19l44.307,-0l-0,9.49l-55.913,-0l0,-88.01l55.308,0l0,9.49l-43.702,0l-0,28.35l38.141,-0l0,9.49Z" style="fill:#fff;fill-rule:nonzero;"/><path d="M564.589,129.617l-20.673,0l0,35.603l-11.666,-0l0,-88.01l29.135,0c9.913,0 17.54,2.257 22.879,6.77c5.339,4.514 8.009,11.082 8.009,19.706c0,5.48 -1.481,10.255 -4.443,14.325c-2.962,4.07 -7.082,7.113 -12.361,9.128l20.673,37.355l-0,0.726l-12.452,-0l-19.101,-35.603Zm-20.673,-9.49l17.832,0c5.762,0 10.346,-1.494 13.751,-4.481c3.405,-2.987 5.108,-6.984 5.108,-11.991c-0,-5.449 -1.622,-9.627 -4.866,-12.534c-3.244,-2.907 -7.929,-4.38 -14.054,-4.421l-17.771,0l0,33.427Z" style="fill:#fff;fill-rule:nonzero;"/><path d="M673.513,153.675c-2.982,4.271 -7.143,7.465 -12.482,9.58c-5.34,2.116 -11.556,3.174 -18.648,3.174c-7.173,-0 -13.54,-1.683 -19.101,-5.048c-5.561,-3.364 -9.863,-8.15 -12.905,-14.355c-3.043,-6.206 -4.604,-13.399 -4.685,-21.58l0,-7.676c0,-13.258 3.093,-23.534 9.279,-30.828c6.185,-7.294 14.879,-10.941 26.082,-10.941c9.188,0 16.582,2.348 22.184,7.042c5.601,4.695 9.026,11.354 10.276,19.978l-11.606,-0c-2.176,-11.687 -9.107,-17.53 -20.793,-17.53c-7.778,0 -13.671,2.733 -17.681,8.198c-4.01,5.465 -6.035,13.38 -6.075,23.745l0,7.199c0,9.881 2.257,17.736 6.77,23.564c4.513,5.828 10.619,8.742 18.315,8.742c4.352,-0 8.161,-0.483 11.425,-1.448c3.264,-0.965 5.964,-2.593 8.099,-4.884l0,-19.721l-20.37,0l0,-9.49l31.916,0l-0,32.279Z" style="fill:#fff;fill-rule:nonzero;"/><path d="M742.603,124.54l-38.142,-0l0,31.19l44.307,-0l0,9.49l-55.913,-0l0,-88.01l55.309,0l-0,9.49l-43.703,0l0,28.35l38.142,-0l-0,9.49Z" style="fill:#fff;fill-rule:nonzero;"/></svg>